# Blender v3.2.2 OBJ File: ''
# www.blender.org
mtllib terrain.mtl
o Plane
v -50.108795 0.000000 50.108795
v 50.108795 0.000000 50.108795
v -50.108795 0.000000 -50.108795
v 50.108795 0.000000 -50.108795
v -50.108795 0.000000 0.000000
v 0.000000 0.000000 50.108795
v 50.108795 0.000000 0.000000
v 0.000000 0.000000 -50.108795
v 0.000000 1.400205 0.000000
v -50.108795 0.000000 25.054398
v 25.054398 0.000000 50.108795
v 50.108795 0.000000 -25.054398
v -25.054398 0.000000 -50.108795
v -50.108795 0.000000 -25.054398
v -25.054398 0.000000 50.108795
v 50.108795 0.000000 25.054398
v 25.054398 0.000000 -50.108795
v 0.000000 0.978553 -25.054398
v 0.000000 2.216342 25.054398
v -25.054398 0.000000 0.000000
v 25.054398 0.000000 0.000000
v 25.054398 0.000000 25.054398
v -25.054398 -1.468472 25.054398
v -25.054398 1.141200 -25.054398
v 25.054398 1.721189 -25.054398
v -50.108795 0.000000 37.581596
v 37.581596 0.000000 50.108795
v 50.108795 0.000000 -37.581596
v -37.581596 0.000000 -50.108795
v -50.108795 0.000000 -12.527199
v -12.527199 0.000000 50.108795
v 50.108795 0.000000 12.527199
v 12.527199 0.000000 -50.108795
v 0.000000 -0.408251 -37.581596
v 0.000000 0.000000 12.527199
v -37.581596 0.000000 0.000000
v 12.527199 0.000000 0.000000
v -50.108795 0.000000 12.527199
v 12.527199 0.000000 50.108795
v 50.108795 0.000000 -12.527199
v -12.527199 0.000000 -50.108795
v -50.108795 0.000000 -37.581596
v -37.581596 0.000000 50.108795
v 50.108795 0.000000 37.581596
v 37.581596 0.000000 -50.108795
v 0.000000 4.073771 -12.527199
v 0.000000 0.000000 37.581596
v -12.527199 0.000000 0.000000
v 37.581596 1.340947 0.000000
v 25.054398 2.507467 12.527199
v 25.054398 0.000000 37.581596
v 12.527199 3.479076 25.054398
v 37.581596 0.000000 25.054398
v -25.054398 0.000000 12.527199
v -25.054398 0.000000 37.581596
v -37.581596 -0.637782 25.054398
v -12.527199 0.000000 25.054398
v -25.054398 1.158636 -37.581596
v -25.054398 0.000000 -12.527199
v -37.581596 2.885741 -25.054398
v -12.527199 2.061663 -25.054398
v 25.054398 0.427281 -37.581596
v 25.054398 0.000000 -12.527199
v 12.527199 0.000000 -25.054398
v 37.581596 0.000000 -25.054398
v 37.581596 0.000000 -12.527199
v 12.527199 1.223678 -12.527199
v 12.527199 0.000000 -37.581596
v -12.527199 2.226454 -12.527199
v -37.581596 1.622752 -12.527199
v -37.581596 0.000000 -37.581596
v -12.527199 0.000000 37.581596
v -37.581596 0.000000 37.581596
v -37.581596 -2.259141 12.527199
v 37.581596 1.290760 37.581596
v 12.527199 0.000000 37.581596
v 12.527199 0.674887 12.527199
v 37.581596 0.000000 12.527199
v -12.527199 -0.706649 12.527199
v -12.527199 0.000000 -37.581596
v 37.581596 0.000000 -37.581596
vt 1.965848 1.965848
vt 2.454465 1.965848
vt 2.454465 2.454465
vt 1.965848 2.454465
vt 0.011384 1.965848
vt 0.500000 1.965848
vt 0.500000 2.454465
vt 0.011384 2.454465
vt 0.011384 0.011384
vt 0.500000 0.011384
vt 0.500000 0.500000
vt 0.011384 0.500000
vt 1.965848 0.011384
vt 2.454465 0.011384
vt 2.454465 0.500000
vt 1.965848 0.500000
vt 0.988616 0.011384
vt 1.477233 0.011384
vt 1.477233 0.500000
vt 0.988616 0.500000
vt 0.988616 -0.965849
vt 1.477233 -0.965849
vt 1.477233 -0.477232
vt 0.988616 -0.477232
vt 1.965848 -0.965849
vt 2.454465 -0.965849
vt 2.454465 -0.477232
vt 1.965848 -0.477232
vt -0.965849 0.011384
vt -0.477232 0.011384
vt -0.477232 0.500000
vt -0.965849 0.500000
vt -0.965849 -0.965849
vt -0.477232 -0.965849
vt -0.477232 -0.477232
vt -0.965849 -0.477232
vt 0.011384 -0.965849
vt 0.500000 -0.965849
vt 0.500000 -0.477232
vt 0.011384 -0.477232
vt -0.965849 1.965848
vt -0.477232 1.965848
vt -0.477232 2.454465
vt -0.965849 2.454465
vt -0.965849 0.988616
vt -0.477232 0.988616
vt -0.477232 1.477233
vt -0.965849 1.477233
vt 0.011384 0.988616
vt 0.500000 0.988616
vt 0.500000 1.477233
vt 0.011384 1.477233
vt 0.988616 1.965848
vt 1.477233 1.965848
vt 1.477233 2.454465
vt 0.988616 2.454465
vt 0.988616 0.988616
vt 1.477233 0.988616
vt 1.477233 1.477233
vt 0.988616 1.477233
vt 1.965848 0.988616
vt 2.454465 0.988616
vt 2.454465 1.477233
vt 1.965848 1.477233
vt -1.454465 0.988616
vt -1.454465 1.477233
vt -1.454465 0.500000
vt -1.454465 1.965848
vt -1.454465 2.454465
vt -0.477232 -1.454465
vt 0.011384 -1.454465
vt 0.500000 -1.454465
vt -1.454465 -0.965849
vt -1.454465 -0.477232
vt -1.454465 -1.454465
vt -0.965849 -1.454465
vt -1.454465 0.011384
vt 1.477233 -1.454465
vt 1.965848 -1.454465
vt 2.454465 -1.454465
vt 0.988616 -1.454465
vn 0.0000 1.0000 0.0000
vn 0.0163 0.9997 0.0163
vn -0.0835 0.9930 0.0835
vn 0.0534 0.9971 0.0534
vn -0.0724 0.9894 -0.1257
vn 0.1363 0.9813 0.1363
vn 0.0514 0.9974 -0.0514
vn -0.0894 0.9920 0.0894
vn 0.0330 0.9959 -0.0837
vn -0.0878 0.9923 0.0878
vn -0.0461 0.9979 -0.0461
vn 0.1326 0.9866 0.0947
vn -0.0302 0.9912 -0.1290
vn -0.0170 0.9997 -0.0170
vn -0.0198 0.9996 0.0198
vn 0.0684 0.9953 0.0684
vn -0.0534 0.9971 -0.0534
vn 0.0534 0.9971 -0.0534
vn 0.1489 0.9745 -0.1680
vn 0.1653 0.9745 0.1516
vn 0.0487 0.9976 0.0487
vn -0.0163 0.9997 0.0163
vn 0.0227 0.9982 -0.0553
vn -0.0853 0.9950 -0.0514
vn -0.1245 0.9915 0.0386
vn -0.0882 0.9922 0.0882
vn -0.1262 0.9736 0.1904
vn -0.1769 0.9830 0.0496
vn -0.0645 0.9958 0.0645
vn 0.0645 0.9958 0.0645
vn -0.1137 0.9870 -0.1137
vn 0.0232 0.9932 -0.1137
vn -0.0584 0.9966 -0.0584
vn 0.0254 0.9994 -0.0254
vn 0.0894 0.9920 0.0894
vn 0.1146 0.9913 -0.0642
vn -0.0569 0.9984 -0.0061
vn -0.0514 0.9974 -0.0514
vn -0.0514 0.9974 0.0514
vn 0.0514 0.9974 0.0514
vn -0.0491 0.9739 0.2214
vn 0.0289 0.9992 0.0289
vn -0.0756 0.9777 -0.1959
vn 0.0656 0.9978 -0.0118
vn 0.0465 0.9978 -0.0465
vn 0.0991 0.9901 0.0991
vn 0.0282 0.9992 0.0282
vn -0.0304 0.9991 0.0304
vn -0.1151 0.9867 -0.1151
vn 0.0461 0.9979 -0.0461
vn 0.0095 0.9966 -0.0813
vn 0.0589 0.9889 -0.1361
vn 0.0170 0.9997 -0.0170
vn 0.0853 0.9950 -0.0514
usemtl Material.001
s off
f 81/1/1 28/2/1 4/3/1 45/4/1
f 80/5/2 34/6/2 8/7/2 41/8/2
f 79/9/3 35/10/3 9/11/3 48/12/3
f 78/13/4 32/14/4 7/15/4 49/16/4
f 77/17/5 50/18/5 21/19/5 37/20/5
f 76/21/6 51/22/6 22/23/6 52/24/6
f 75/25/7 44/26/7 16/27/7 53/28/7
f 74/29/8 54/30/8 20/31/8 36/32/8
f 73/33/9 55/34/9 23/35/9 56/36/9
f 72/37/10 47/38/10 19/39/10 57/40/10
f 71/41/11 58/42/11 13/43/11 29/44/11
f 70/45/12 59/46/12 24/47/12 60/48/12
f 69/49/13 46/50/13 18/51/13 61/52/13
f 68/53/14 62/54/14 17/55/14 33/56/14
f 67/57/15 63/58/15 25/59/15 64/60/15
f 66/61/1 40/62/1 12/63/1 65/64/1
f 63/58/16 66/61/16 65/64/16 25/59/16
f 21/19/17 49/16/17 66/61/17 63/58/17
f 49/16/18 7/15/18 40/62/18 66/61/18
f 46/50/19 67/57/19 64/60/19 18/51/19
f 9/11/20 37/20/20 67/57/20 46/50/20
f 37/20/21 21/19/21 63/58/21 67/57/21
f 34/6/22 68/53/22 33/56/22 8/7/22
f 18/51/23 64/60/23 68/53/23 34/6/23
f 64/60/24 25/59/24 62/54/24 68/53/24
f 59/46/25 69/49/25 61/52/25 24/47/25
f 20/31/26 48/12/26 69/49/26 59/46/26
f 48/12/27 9/11/27 46/50/27 69/49/27
f 30/65/28 70/45/28 60/48/28 14/66/28
f 5/67/29 36/32/29 70/45/29 30/65/29
f 36/32/30 20/31/30 59/46/30 70/45/30
f 42/68/1 71/41/1 29/44/1 3/69/1
f 14/66/31 60/48/31 71/41/31 42/68/31
f 60/48/32 24/47/32 58/42/32 71/41/32
f 55/34/33 72/37/33 57/40/33 23/35/33
f 15/70/1 31/71/1 72/37/1 55/34/1
f 31/71/1 6/72/1 47/38/1 72/37/1
f 26/73/34 73/33/34 56/36/34 10/74/34
f 1/75/1 43/76/1 73/33/1 26/73/1
f 43/76/1 15/70/1 55/34/1 73/33/1
f 38/77/35 74/29/35 36/32/35 5/67/35
f 10/74/36 56/36/36 74/29/36 38/77/36
f 56/36/37 23/35/37 54/30/37 74/29/37
f 51/22/38 75/25/38 53/28/38 22/23/38
f 11/78/39 27/79/39 75/25/39 51/22/39
f 27/79/40 2/80/40 44/26/40 75/25/40
f 47/38/41 76/21/41 52/24/41 19/39/41
f 6/72/1 39/81/1 76/21/1 47/38/1
f 39/81/1 11/78/1 51/22/1 76/21/1
f 35/10/42 77/17/42 37/20/42 9/11/42
f 19/39/43 52/24/43 77/17/43 35/10/43
f 52/24/44 22/23/44 50/18/44 77/17/44
f 50/18/45 78/13/45 49/16/45 21/19/45
f 22/23/46 53/28/46 78/13/46 50/18/46
f 53/28/1 16/27/1 32/14/1 78/13/1
f 54/30/47 79/9/47 48/12/47 20/31/47
f 23/35/48 57/40/48 79/9/48 54/30/48
f 57/40/49 19/39/49 35/10/49 79/9/49
f 58/42/50 80/5/50 41/8/50 13/43/50
f 24/47/51 61/52/51 80/5/51 58/42/51
f 61/52/52 18/51/52 34/6/52 80/5/52
f 62/54/53 81/1/53 45/4/53 17/55/53
f 25/59/54 65/64/54 81/1/54 62/54/54
f 65/64/1 12/63/1 28/2/1 81/1/1
